<?xml version="1.0" encoding="UTF-8" standalone="no"?>
<!-- Created with Inkscape (http://www.inkscape.org/) -->

<svg
   xmlns:dc="http://purl.org/dc/elements/1.1/"
   xmlns:cc="http://creativecommons.org/ns#"
   xmlns:rdf="http://www.w3.org/1999/02/22-rdf-syntax-ns#"
   xmlns:svg="http://www.w3.org/2000/svg"
   xmlns="http://www.w3.org/2000/svg"
   xmlns:xlink="http://www.w3.org/1999/xlink"
   xmlns:sodipodi="http://sodipodi.sourceforge.net/DTD/sodipodi-0.dtd"
   xmlns:inkscape="http://www.inkscape.org/namespaces/inkscape"
   width="363.47723mm"
   height="205.2282mm"
   viewBox="0 0 363.47723 205.2282"
   version="1.1"
   id="svg8"
   inkscape:version="0.92.5 (2060ec1f9f, 2020-04-08)"
   sodipodi:docname="necoarc_jumpscare_crop.svg">
  <defs
     id="defs2">
    <inkscape:path-effect
       effect="taper_stroke"
       id="path-effect861"
       is_visible="true"
       stroke_width="1.5"
       attach_start="0.42515769"
       end_offset="2.498202"
       smoothing="0.5"
       jointype="extrapolated"
       miter_limit="100" />
    <inkscape:path-effect
       effect="powerstroke"
       id="path-effect859"
       is_visible="true"
       offset_points="1.528111,5.8312662"
       sort_points="true"
       interpolator_type="CubicBezierFit"
       interpolator_beta="0.2"
       start_linecap_type="zerowidth"
       linejoin_type="extrp_arc"
       miter_limit="4.1"
       end_linecap_type="zerowidth" />
    <inkscape:path-effect
       effect="powerstroke"
       id="path-effect857"
       is_visible="true"
       offset_points="1.2563863,1.1263447 | 3,0.61915728 | 4.8852704,1.1550023"
       sort_points="true"
       interpolator_type="Linear"
       interpolator_beta="0.6"
       start_linecap_type="zerowidth"
       linejoin_type="round"
       miter_limit="5"
       end_linecap_type="zerowidth" />
    <linearGradient
       inkscape:collect="always"
       id="linearGradient4782">
      <stop
         style="stop-color:#ffeedf;stop-opacity:1"
         offset="0"
         id="stop4778" />
      <stop
         style="stop-color:#fde3d6;stop-opacity:1"
         offset="1"
         id="stop4780" />
    </linearGradient>
    <linearGradient
       id="linearGradient4776"
       inkscape:collect="always">
      <stop
         id="stop4770"
         offset="0"
         style="stop-color:#e0b48d;stop-opacity:1" />
      <stop
         style="stop-color:#f8c79f;stop-opacity:1"
         offset="0.67100334"
         id="stop4772" />
      <stop
         id="stop4774"
         offset="1"
         style="stop-color:#fbdab3;stop-opacity:1" />
    </linearGradient>
    <linearGradient
       inkscape:collect="always"
       id="linearGradient4768">
      <stop
         style="stop-color:#e0b48d;stop-opacity:1"
         offset="0"
         id="stop4762" />
      <stop
         id="stop4764"
         offset="0.72425133"
         style="stop-color:#f8c79f;stop-opacity:1" />
      <stop
         style="stop-color:#fbdab3;stop-opacity:1"
         offset="1"
         id="stop4766" />
    </linearGradient>
    <linearGradient
       id="linearGradient4758"
       inkscape:collect="always">
      <stop
         id="stop4754"
         offset="0"
         style="stop-color:#e0b48d;stop-opacity:1" />
      <stop
         style="stop-color:#f8c79f;stop-opacity:1"
         offset="0.59573096"
         id="stop4760" />
      <stop
         id="stop4756"
         offset="1"
         style="stop-color:#fbdab3;stop-opacity:1" />
    </linearGradient>
    <linearGradient
       inkscape:collect="always"
       xlink:href="#linearGradient4758"
       id="linearGradient4725"
       gradientUnits="userSpaceOnUse"
       x1="460.18927"
       y1="169.70705"
       x2="459.72321"
       y2="80.130119"
       gradientTransform="matrix(3.7795276,0,0,3.7795276,-1349.4848,-30.112624)" />
    <linearGradient
       inkscape:collect="always"
       xlink:href="#linearGradient4768"
       id="linearGradient4738"
       x1="637.6944"
       y1="252.78624"
       x2="580.34235"
       y2="6.4823642"
       gradientUnits="userSpaceOnUse"
       gradientTransform="matrix(3.7795276,0,0,3.7795276,-1349.4848,-30.112624)" />
    <linearGradient
       inkscape:collect="always"
       xlink:href="#linearGradient4776"
       id="linearGradient4746"
       x1="282.76382"
       y1="248.7075"
       x2="332.02707"
       y2="-14.806374"
       gradientUnits="userSpaceOnUse"
       gradientTransform="matrix(3.7795276,0,0,3.7795276,-1349.4848,-30.112624)" />
    <linearGradient
       inkscape:collect="always"
       xlink:href="#linearGradient4782"
       id="linearGradient4784"
       x1="459.72321"
       y1="283.33008"
       x2="459.72321"
       y2="80.130096"
       gradientUnits="userSpaceOnUse"
       gradientTransform="matrix(3.7795276,0,0,3.7795276,-1349.4848,-30.112624)" />
  </defs>
  <sodipodi:namedview
     id="base"
     pagecolor="#ffffff"
     bordercolor="#666666"
     borderopacity="1.0"
     inkscape:pageopacity="0.0"
     inkscape:pageshadow="2"
     inkscape:zoom="0.29956652"
     inkscape:cx="810.6145"
     inkscape:cy="828.75798"
     inkscape:document-units="mm"
     inkscape:current-layer="layer1"
     showgrid="false"
     inkscape:snap-intersection-paths="true"
     inkscape:window-width="1920"
     inkscape:window-height="1016"
     inkscape:window-x="0"
     inkscape:window-y="0"
     inkscape:window-maximized="1"
     inkscape:snap-grids="true"
     inkscape:snap-page="false"
     fit-margin-top="0"
     fit-margin-left="0"
     fit-margin-right="0"
     fit-margin-bottom="0" />
  <metadata
     id="metadata5">
    <rdf:RDF>
      <cc:Work
         rdf:about="">
        <dc:format>image/svg+xml</dc:format>
        <dc:type
           rdf:resource="http://purl.org/dc/dcmitype/StillImage" />
        <dc:title></dc:title>
      </cc:Work>
    </rdf:RDF>
  </metadata>
  <g
     inkscape:label="Ebene 1"
     inkscape:groupmode="layer"
     id="layer1"
     transform="translate(73.422847,-46.806315)">
    <g
       id="g1079"
       transform="translate(5.643485,-24.356722)">
      <rect
         style="opacity:1;fill:#fa0000;fill-opacity:1;stroke:none;stroke-width:0.1;stroke-linecap:round;stroke-linejoin:miter;stroke-miterlimit:4;stroke-dasharray:none;stroke-opacity:1"
         id="rect879"
         width="361.42087"
         height="203.20001"
         x="-78.038361"
         y="72.162804" />
      <path
         id="rect4590"
         transform="scale(0.26458333)"
         d="m -294.94727,273.0332 v 767.709 H 1071.0527 v -767.709 z"
         style="opacity:1;fill:#9d685d;fill-opacity:1;stroke:#000000;stroke-width:7.77222681;stroke-linecap:round;stroke-linejoin:miter;stroke-miterlimit:4;stroke-dasharray:none;stroke-dashoffset:0;stroke-opacity:1"
         inkscape:connector-curvature="0" />
      <path
         id="path4652"
         transform="scale(0.26458333)"
         d="m -99.474609,272.74219 c -73.489751,57.97051 -134.826971,134.60689 -177.074221,232.60742 -50.06174,245.0418 67.45719,431.14669 262.644533,535.39259 H 799.92578 C 989.25587,937.30975 1098.4364,753.27504 1059.082,510.95703 1044.2324,419.52299 979.2597,337.43598 884.83203,272.74219 Z"
         style="fill:#cb9899;fill-opacity:1;fill-rule:nonzero;stroke:#38201f;stroke-width:7.55905533;stroke-linecap:round;stroke-linejoin:round;stroke-miterlimit:4;stroke-dasharray:none;stroke-opacity:1"
         inkscape:connector-curvature="0" />
      <path
         id="path4715"
         transform="scale(0.26458333)"
         d="M 8.0507812,272.74219 C -8.8195812,296.83141 -27.721824,322.60742 -48.408203,348.93555 -131.48063,454.66411 -299.58105,825.80627 11.011719,1040.7422 H 783.7168 C 908.9462,949.79117 956.56879,809.35189 978.58594,658.68555 997.16284,531.56125 801.98492,532.64157 713.75,478.65234 670.07489,451.9284 606.09946,352.63172 559.43359,272.74219 h -50.83398 c 9.41351,130.88476 17.9539,329.23216 -20.76172,289.68164 -70.67369,-72.19778 -98.29687,-154.2793 -98.29687,-154.2793 0,0 -79.98246,155.9052 -179.20704,86.22266 -67.77034,-47.59315 -95.85444,-141.42641 -107.13671,-221.625 z"
         style="opacity:1;fill:url(#linearGradient4784);fill-opacity:1;stroke:none;stroke-width:0.99999994px;stroke-linecap:butt;stroke-linejoin:miter;stroke-opacity:1"
         inkscape:connector-curvature="0" />
      <path
         id="path4648"
         transform="scale(0.26458333)"
         d="m 864.53125,272.74219 c 13.34944,123.39959 58.13777,394.69769 206.52145,700.61133 V 272.74219 Z"
         style="fill:url(#linearGradient4738);fill-opacity:1;stroke:#4e322b;stroke-width:5.6692915;stroke-linecap:butt;stroke-linejoin:miter;stroke-miterlimit:4;stroke-dasharray:none;stroke-opacity:1"
         inkscape:connector-curvature="0" />
      <path
         id="path4646"
         transform="scale(0.26458333)"
         d="m -294.94727,272.74219 v 692.92969 c 112.60011,-286.9216 149.71123,-565.24255 161.49415,-692.92969 z"
         style="fill:url(#linearGradient4746);fill-opacity:1;stroke:#4e322b;stroke-width:5.6692915;stroke-linecap:butt;stroke-linejoin:miter;stroke-miterlimit:4;stroke-dasharray:none;stroke-opacity:1"
         inkscape:connector-curvature="0" />
      <path
         id="path4654"
         transform="scale(0.26458333)"
         d="m -294.94727,272.74219 v 164.24804 c 41.165,-41.03048 84.87378,-95.93059 122.73243,-164.24804 z m 141.91993,0 c -17.08673,144.39211 11.66998,260.70198 93.001949,332.91015 C 29.842293,494.57852 86.618412,376.9794 125.80078,272.74219 Z m 312.0039,0 c -5.98261,107.86456 21.82188,190.52575 110.10938,333.95117 100.53003,-109.98006 128.89453,-290.76563 128.89453,-290.76563 0,0 8.9632,120.76448 106.82031,274.33594 72.31986,-108.0848 86.93826,-214.88276 79.51563,-317.52148 z m 457.84571,0 c 33.78673,104.38694 80.96002,219.96593 155.54882,304.41992 88.99564,-57.46082 119.19177,-192.0389 122.76172,-304.41992 z m 298.42773,0 c 33.42217,89.93846 86.0103,171.10029 155.8027,225.18359 V 272.74219 Z"
         style="fill:url(#linearGradient4725);fill-opacity:1;stroke:#4e322b;stroke-width:5.6692915;stroke-linecap:round;stroke-linejoin:round;stroke-miterlimit:4;stroke-dasharray:none;stroke-opacity:1"
         inkscape:connector-curvature="0" />
      <path
         inkscape:export-ydpi="299.96991"
         inkscape:export-xdpi="299.96991"
         sodipodi:nodetypes="cssccccsscccsscscssssccsscssssssssccsssscccscccc"
         inkscape:connector-curvature="0"
         id="path4687"
         d="m 3.4399755,114.05419 c -41.8496475,4.03225 -72.1538315,22.25858 -72.3134815,49.43485 -0.18108,30.82018 34.010573,54.83932 80.697995,54.99547 42.876814,0.1434 83.962081,-26.49846 83.154599,-57.03627 -0.546762,-20.67904 -28.805822,-46.49869 -74.665204,-47.97283 0.0327,0.0766 0.06339,0.1348 0.09612,0.21188 0.816213,1.92172 1.641845,3.99865 2.446866,6.21667 0.805048,2.21803 1.589696,4.57711 2.32545,7.0621 0.367876,1.2425 0.723344,2.51619 1.06299,3.81993 0.339645,1.30373 0.663734,2.63741 0.967899,3.99872 0.304138,1.3613 0.588671,2.75043 0.850079,4.16564 0.261382,1.4152 0.499692,2.85625 0.711068,4.32169 0.211349,1.46545 0.395764,2.95542 0.549831,4.46743 0.154066,1.51201 0.277389,3.04637 0.366897,4.60127 0.08951,1.55491 0.145098,3.13012 0.162798,4.72426 0.01773,1.59414 -0.0026,3.20722 -0.06358,4.83691 -0.06141,1.6297 -0.164333,3.27609 -0.312129,4.93769 -0.14777,1.66159 -0.340466,3.3383 -0.581872,5.02812 -0.241405,1.68981 -0.531547,3.3928 -0.873839,5.10718 -0.342291,1.71437 -0.737076,3.44012 -1.187529,5.17539 -0.450453,1.73527 -0.956495,3.47975 -1.522386,5.23224 -0.565891,1.75249 -1.191393,3.51271 -1.879997,5.27875 -0.688578,1.76604 -1.440207,3.53796 -2.258774,5.31388 -0.818542,1.77593 -1.703997,3.55604 -2.659777,5.33818 -0.955781,1.78214 -1.982232,3.5664 -3.082502,5.35109 -1.10027,1.7847 -2.274358,3.56959 -3.526393,5.35317 -1.387898,-1.71271 -2.6888286,-3.43122 -3.9062295,-5.15369 -1.2174008,-1.72248 -2.3514049,-3.44879 -3.4065103,-5.17695 -1.0551054,-1.72816 -2.0311004,-3.45803 -2.9321125,-5.1878 -0.90101206,-1.72976 -1.72690889,-3.45947 -2.48202972,-5.18676 -0.75512088,-1.72728 -1.43928048,-3.45209 -2.05671208,-5.17281 -0.6174317,-1.72072 -1.1682942,-3.43742 -1.6562387,-5.14749 -0.4879446,-1.71008 -0.9133682,-3.41339 -1.2800277,-5.10873 -0.3666596,-1.69535 -0.6745288,-3.38259 -0.9281054,-5.05912 -0.2535767,-1.67653 -0.452808,-3.34245 -0.6015038,-4.99608 -0.1487223,-1.65364 -0.246671,-3.29501 -0.2986881,-4.92166 -0.052043,-1.62666 -0.058182,-3.23874 -0.021696,-4.83434 0.03646,-1.59559 0.1153054,-3.17466 0.2320395,-4.73511 0.1167342,-1.56044 0.2716213,-3.10227 0.460428,-4.62349 0.1888066,-1.52121 0.4113741,-3.02156 0.6640512,-4.49946 0.2526771,-1.4779 0.5355167,-2.93306 0.8438621,-4.36356 0.3083718,-1.4305 0.642567,-2.83674 0.9984052,-4.21576 0.3558116,-1.37903 0.7330016,-2.73108 1.1280775,-4.05454 0.3951022,-1.32346 0.8078787,-2.61812 1.2340431,-3.88193 0.8523287,-2.52763 1.75873831,-4.93193 2.68612934,-7.19646 0.92741746,-2.26454 1.87589576,-4.38949 2.81275886,-6.35827 0.015346,-0.0324 0.029527,-0.0571 0.044953,-0.0894 z"
         style="fill:#ffffff;fill-opacity:1;stroke:#38201f;stroke-width:1.5;stroke-linecap:butt;stroke-linejoin:miter;stroke-miterlimit:4;stroke-dasharray:none;stroke-dashoffset:0;stroke-opacity:1" />
      <path
         sodipodi:nodetypes="ccccccssssccsccsccscccsccsssscsccsccccccccccc"
         inkscape:export-ydpi="299.96991"
         inkscape:export-xdpi="299.96991"
         inkscape:connector-curvature="0"
         id="path4588"
         d="m 3.4399755,114.05419 c 0,0 -1.9302945,4.18313 -2.85771192,6.44767 -0.92739103,2.26453 -1.83380058,4.66883 -2.68612938,7.19646 -0.4261644,1.26381 -0.8389408,2.55847 -1.2340431,3.88193 -0.3950758,1.32346 -0.7722658,2.67551 -1.1280775,4.05454 -0.3558381,1.37902 -0.6900333,2.78526 -0.9984052,4.21576 -0.3083454,1.4305 -0.591185,2.88566 -0.8438621,4.36356 -0.252677,1.4779 -0.4752445,2.97825 -0.6640512,4.49946 -0.1888067,1.52122 -0.3436937,3.06305 -0.4604279,4.62349 -0.1167342,1.56045 -0.19558,3.13952 -0.2320396,4.73511 -0.03646,1.5956 -0.030321,3.20768 0.021722,4.83434 0.052017,1.62665 0.1499658,3.26802 0.2986881,4.92166 0.1486958,1.65363 0.3479271,3.31955 0.6015038,4.99608 0.2535766,1.67653 0.5614458,3.36377 0.9281054,5.05912 0.3666595,1.69534 0.7920831,3.39865 1.2800277,5.10873 0.4879445,1.71007 1.038807,3.42677 1.6562387,5.14749 0.6174316,1.72072 1.3015912,3.44553 2.05671208,5.17281 0.75512083,1.72729 1.58101766,3.457 2.48202972,5.18676 0.9010121,1.72977 1.8770071,3.45964 2.9321125,5.1878 1.0551054,1.72816 2.1891095,3.45447 3.4065103,5.17695 1.2174009,1.72247 2.5183311,3.44098 3.9062291,5.15369 1.252035,-1.78358 2.426123,-3.56847 3.526393,-5.35317 1.10027,-1.78469 2.126721,-3.56895 3.082502,-5.35109 0.95578,-1.78214 1.841235,-3.56225 2.659777,-5.33818 0.818567,-1.77592 1.570196,-3.54784 2.258774,-5.31388 0.688604,-1.76604 1.314106,-3.52626 1.879997,-5.27875 0.565891,-1.75249 1.071933,-3.49697 1.522386,-5.23224 0.450453,-1.73527 0.845238,-3.46102 1.187529,-5.17539 0.342292,-1.71438 0.632434,-3.41737 0.873839,-5.10718 0.241406,-1.68982 0.434102,-3.36653 0.581872,-5.02812 0.147796,-1.6616 0.250719,-3.30799 0.312129,-4.93769 0.06141,-1.62969 0.08125,-3.24277 0.06358,-4.83691 -0.0177,-1.59414 -0.07329,-3.16935 -0.162798,-4.72426 -0.08951,-1.5549 -0.212831,-3.08926 -0.366897,-4.60127 -0.154067,-1.51201 -0.338482,-3.00198 -0.549831,-4.46743 -0.211376,-1.46544 -0.449686,-2.90649 -0.711068,-4.32169 -0.261408,-1.41521 -0.545941,-2.80434 -0.850079,-4.16564 -0.304165,-1.36131 -0.628254,-2.69499 -0.967899,-3.99872 -0.339646,-1.30374 -0.695114,-2.57743 -1.06299,-3.81993 -0.735754,-2.48499 -1.520402,-4.84407 -2.32545,-7.0621 -0.805021,-2.21802 -1.630653,-4.29495 -2.446866,-6.21667 -0.03273,-0.0771 -0.06342,-0.1353 -0.09612,-0.21188 -1.183164,-0.038 -2.369556,-0.0708 -3.576003,-0.0682 -4.533212,0.01 -8.9729466,0.23028 -11.1431401,0.45478 -2.04617,0.17902 -2.1547684,0.1922 -2.1547684,0.1922 z"
         style="fill:#a40000;fill-opacity:1;stroke:#000000;stroke-width:1.5;stroke-linecap:butt;stroke-linejoin:miter;stroke-miterlimit:4;stroke-dasharray:none;stroke-dashoffset:0;stroke-opacity:1" />
      <path
         inkscape:export-ydpi="299.96991"
         inkscape:export-xdpi="299.96991"
         sodipodi:nodetypes="csssccssscsscsssssscsccsccssscssccssssccscscc"
         inkscape:connector-curvature="0"
         id="path4684"
         d="m 186.72854,111.87551 c -45.78725,1.55595 -73.71106,30.46338 -74.25716,51.11679 -0.80745,30.53781 40.04323,54.03209 81.40814,53.88869 46.68742,-0.16185 81.82398,-27.38809 81.45393,-55.75142 -0.35377,-27.11662 -29.89029,-44.54761 -71.33672,-48.64944 0.78658,1.82023 1.57811,3.74943 2.34662,5.826 0.8178,2.20972 1.61044,4.5574 2.34767,7.02747 0.36862,1.23504 0.72353,2.50078 1.0604,3.79512 0.33687,1.29434 0.65606,2.61741 0.95343,3.9672 0.29736,1.34979 0.57308,2.72653 0.8232,4.12792 0.25013,1.40138 0.47461,2.82761 0.66974,4.27674 0.19513,1.44912 0.3606,2.92119 0.49299,4.4142 0.1324,1.49301 0.23159,3.00673 0.29351,4.53977 0.0619,1.53304 0.0866,3.08529 0.0703,4.6545 -0.0164,1.56921 -0.0734,3.15528 -0.17571,4.75681 -0.10227,1.60153 -0.24948,3.21829 -0.44546,4.84829 -0.19597,1.62999 -0.441,3.27326 -0.73845,4.92786 -0.29744,1.65461 -0.64757,3.32072 -1.0542,4.99608 -0.40664,1.67536 -0.86961,3.36014 -1.39319,5.0524 -0.52359,1.69226 -1.10771,3.39206 -1.75596,5.09737 -0.64829,1.7053 -1.36078,3.41594 -2.14149,5.13043 -0.78071,1.7145 -1.62936,3.43283 -2.55021,5.15266 -0.92088,1.71983 -1.91397,3.44116 -2.98278,5.16247 -1.06879,1.72132 -2.21356,3.44251 -3.43802,5.16145 -1.22447,1.71893 -2.52868,3.43581 -3.91658,5.14852 -1.25203,-1.78357 -2.42234,-3.56684 -3.51554,-5.34799 -1.09318,-1.78116 -2.10942,-3.5603 -3.0515,-5.3356 -0.94207,-1.77529 -1.81046,-3.54686 -2.60913,-5.31285 -0.79867,-1.76599 -1.52755,-3.52653 -2.19057,-5.27978 -0.66302,-1.75325 -1.26018,-3.4993 -1.79525,-5.23637 -0.53504,-1.73708 -1.0078,-3.46518 -1.42264,-5.18263 -0.41484,-1.71746 -0.77149,-3.42416 -1.07383,-5.11855 -0.30234,-1.6944 -0.5502,-3.37624 -0.74777,-5.04414 -0.19754,-1.66789 -0.34494,-3.32195 -0.44545,-4.9599 -0.10049,-1.63796 -0.1542,-3.25973 -0.16537,-4.86431 -0.0111,-1.60457 0.0206,-3.19164 0.091,-4.7594 0.0704,-1.56776 0.17968,-3.11614 0.32401,-4.64364 0.14433,-1.5275 0.32334,-3.03427 0.53382,-4.51807 0.21048,-1.4838 0.45249,-2.94498 0.72139,-4.38165 0.26892,-1.43666 0.56507,-2.84879 0.88471,-4.23488 0.31962,-1.38609 0.66265,-2.74623 1.02526,-4.0783 0.36261,-1.33207 0.74467,-2.63626 1.14255,-3.91087 0.39791,-1.27462 0.81172,-2.51939 1.23714,-3.73311 0.85085,-2.42744 1.74874,-4.7299 2.6634,-6.89312 0.88059,-2.0826 1.77625,-4.02004 2.6598,-5.83272 z"
         style="fill:#ffffff;fill-opacity:1;stroke:#38201f;stroke-width:1.5;stroke-linecap:butt;stroke-linejoin:miter;stroke-miterlimit:4;stroke-dasharray:none;stroke-dashoffset:0;stroke-opacity:1" />
      <path
         sodipodi:nodetypes="cccsccsscccccccsscccccccccccccsccsccscccccc"
         inkscape:export-ydpi="299.96991"
         inkscape:export-xdpi="299.96991"
         inkscape:connector-curvature="0"
         id="path4588-0"
         d="m 184.06874,117.70823 c -0.91466,2.16322 -1.81255,4.46568 -2.6634,6.89312 -0.42542,1.21372 -0.83923,2.45849 -1.23714,3.73311 -0.39788,1.27461 -0.77994,2.5788 -1.14255,3.91087 -0.36261,1.33207 -0.70564,2.69221 -1.02526,4.0783 -0.31964,1.38609 -0.61579,2.79822 -0.88471,4.23488 -0.2689,1.43667 -0.51091,2.89785 -0.72139,4.38165 -0.21048,1.4838 -0.38949,2.99057 -0.53382,4.51807 -0.14433,1.5275 -0.25358,3.07588 -0.32401,4.64364 -0.0704,1.56776 -0.10213,3.15483 -0.091,4.7594 0.0112,1.60458 0.0649,3.22635 0.16537,4.86431 0.10051,1.63795 0.24791,3.29201 0.44545,4.9599 0.19757,1.6679 0.44543,3.34974 0.74777,5.04414 0.30234,1.69439 0.65899,3.40109 1.07383,5.11855 0.41484,1.71745 0.8876,3.44555 1.42264,5.18263 0.53507,1.73707 1.13223,3.48312 1.79525,5.23637 0.66302,1.75325 1.3919,3.51379 2.19057,5.27978 0.79867,1.76599 1.66706,3.53756 2.60913,5.31285 0.94208,1.7753 1.95832,3.55444 3.0515,5.3356 1.0932,1.78115 2.26351,3.56442 3.51554,5.34799 1.3879,-1.71271 2.69211,-3.42959 3.91658,-5.14852 1.22446,-1.71894 2.36923,-3.44013 3.43802,-5.16145 1.06881,-1.72131 2.0619,-3.44264 2.98278,-5.16247 0.92085,-1.71983 1.7695,-3.43816 2.55021,-5.15266 0.78071,-1.71449 1.4932,-3.42513 2.14149,-5.13043 0.64825,-1.70531 1.23237,-3.40511 1.75596,-5.09737 0.52358,-1.69226 0.98655,-3.37704 1.39319,-5.0524 0.40663,-1.67536 0.75676,-3.34147 1.0542,-4.99608 0.29745,-1.6546 0.54248,-3.29787 0.73845,-4.92786 0.19598,-1.63 0.34319,-3.24676 0.44546,-4.84829 0.10226,-1.60153 0.15941,-3.1876 0.17571,-4.75681 0.0163,-1.56921 -0.008,-3.12146 -0.0703,-4.6545 -0.0619,-1.53304 -0.16111,-3.04676 -0.29351,-4.53977 -0.13239,-1.49301 -0.29786,-2.96508 -0.49299,-4.4142 -0.19513,-1.44913 -0.41961,-2.87536 -0.66974,-4.27674 -0.25012,-1.40139 -0.52584,-2.77813 -0.8232,-4.12792 -0.29737,-1.34979 -0.61656,-2.67286 -0.95343,-3.9672 -0.33687,-1.29434 -0.69178,-2.56008 -1.0604,-3.79512 -0.73723,-2.47007 -1.52987,-4.81775 -2.34767,-7.02747 -0.76851,-2.07657 -1.56004,-4.00577 -2.34662,-5.826 -4.38076,-0.43356 -8.89254,-0.6665 -13.51907,-0.67645 -1.26441,-0.003 -3.74909,0.0718 -3.74909,0.0718 0,0 -1.77921,3.75012 -2.6598,5.83272 z"
         style="fill:#a40000;fill-opacity:1;stroke:#000000;stroke-width:1.5;stroke-linecap:butt;stroke-linejoin:miter;stroke-miterlimit:4;stroke-dasharray:none;stroke-dashoffset:0;stroke-opacity:1" />
      <path
         inkscape:export-ydpi="299.96991"
         inkscape:export-xdpi="299.96991"
         transform="translate(-357.05119,-7.9672984)"
         inkscape:original-d="m 515.80364,234.51115 c 0,0 13.87697,14.57616 -1.67274,27.01798 -11.19671,8.95885 -29.05227,5.62025 -37.15888,1.05337 -15.55638,-8.76373 -17.41832,-16.44711 -17.41832,-16.44711 0,0 -2.14426,7.14885 -17.70064,15.91258 -8.10661,4.56688 -27.69942,9.24181 -37.82705,-0.11794 -14.62527,-13.51639 0.0254,-25.78006 0.0254,-25.78006"
         inkscape:path-effect="#path-effect857"
         sodipodi:nodetypes="csscssc"
         inkscape:connector-curvature="0"
         id="path4598-4"
         d="m 515.80364,234.51115 c -0.0541,0.0515 0.75282,1.00841 1.73979,2.59768 0.99011,1.59433 2.15001,3.80579 2.82487,6.37183 0.67482,2.56592 0.85355,5.44358 -0.0627,8.39419 -0.91258,2.93861 -2.92697,6.00301 -6.73474,8.95428 -2.73041,2.08913 -5.84757,3.43222 -9.11097,4.2016 -0.0834,0.0197 -0.16696,0.039 -0.25059,0.0579 -3.16941,0.81614 -6.50278,1.09694 -9.77277,0.98477 -3.35481,-0.11507 -6.62462,-0.64317 -9.55434,-1.41711 -2.93207,-0.77457 -5.50223,-1.78971 -7.46345,-2.86666 -7.71457,-4.29039 -12.01509,-8.29693 -14.39213,-11.19435 -2.37906,-2.89989 -2.84407,-4.69992 -2.87112,-4.6057 a 0.61433563,0.61823213 46.718257 0 0 -1.19479,-0.0321 c -0.0208,-0.0956 -0.55025,1.57626 -3.00066,4.35122 -2.44901,2.77336 -6.82602,6.65501 -14.55033,10.95216 -1.96754,1.08113 -4.65388,2.18242 -7.74114,3.07766 -3.08468,0.89449 -6.5446,1.576 -10.05382,1.83072 -3.5122,0.25493 -7.0446,0.0802 -10.287,-0.71614 -1.75219,-0.43037 -3.41198,-1.04037 -4.93599,-1.85662 -1.31488,-0.64699 -2.54515,-1.44872 -3.66246,-2.42741 -3.58624,-3.19702 -5.38571,-6.29386 -6.111,-9.13926 -0.72806,-2.85631 -0.39106,-5.53085 0.41933,-7.87203 0.81109,-2.34321 2.08092,-4.30664 3.15139,-5.71369 1.06596,-1.4011 1.91786,-2.22794 1.86244,-2.29415 -0.0551,-0.0659 -1.03523,0.64031 -2.25886,1.96063 -1.21923,1.31557 -2.6985,3.26125 -3.72166,5.67429 -1.02413,2.41533 -1.60754,5.33895 -0.96926,8.58461 0.64015,3.25515 2.49567,6.76066 6.22114,10.32146 1.20651,1.16902 2.54941,2.14545 3.99342,2.94992 1.72892,0.89509 3.58042,1.54212 5.49428,1.98463 3.533,0.81687 7.30438,0.9428 10.96966,0.6282 3.66829,-0.31487 7.25949,-1.07348 10.44496,-2.04744 3.18327,-0.97329 5.98521,-2.16888 8.07137,-3.37122 7.83196,-4.46653 12.30549,-8.54127 14.8176,-11.53322 2.51198,-2.99179 3.0538,-4.89143 3.03269,-4.98856 a 0.61433563,0.61823213 46.718257 0 0 -1.19479,-0.0321 c -0.0274,0.0956 0.43744,2.13399 2.87991,5.26861 2.44288,3.13515 6.85181,7.35228 14.69347,11.82556 2.09236,1.20648 4.7936,2.32126 7.83959,3.17715 3.04811,0.85648 6.46191,1.45946 9.98394,1.63001 3.43116,0.16614 6.98228,-0.0773 10.40636,-0.9084 0.0892,-0.0242 0.17833,-0.0489 0.26734,-0.074 3.4867,-0.98165 6.80068,-2.58068 9.66842,-4.97104 3.9664,-3.26952 6.04989,-6.69306 6.90806,-9.98662 0.85526,-3.28241 0.48004,-6.3802 -0.37052,-9.01425 -0.85046,-2.63374 -2.18838,-4.84292 -3.31405,-6.37093 -1.12878,-1.53221 -2.05698,-2.39746 -2.11084,-2.34618 z"
         style="fill:#664644;fill-opacity:1;fill-rule:nonzero;stroke:none;stroke-width:1;stroke-linecap:round;stroke-linejoin:round;stroke-miterlimit:4;stroke-dasharray:none;stroke-opacity:1" />
      <rect
         style="opacity:1;fill:none;fill-opacity:1;stroke:#000000;stroke-width:1.69999969;stroke-linecap:round;stroke-linejoin:miter;stroke-miterlimit:4;stroke-dasharray:none;stroke-dashoffset:0;stroke-opacity:1"
         id="rect4590-9"
         width="361.42084"
         height="203.2"
         x="-78.038338"
         y="72.162804"
         inkscape:export-xdpi="299.96991"
         inkscape:export-ydpi="299.96991" />
    </g>
  </g>
</svg>
